<svg width="51" height="51" viewBox="0 0 51 51" fill="none" xmlns="http://www.w3.org/2000/svg">
<path d="M24.8195 0.604507C24.9152 -0.201502 26.0848 -0.201502 26.1805 0.604507L26.9828 7.36619C28.0188 16.0974 34.9026 22.9812 43.6337 24.0172L50.3954 24.8195C51.2015 24.9152 51.2015 26.0848 50.3954 26.1805L43.6337 26.9828C34.9026 28.0188 28.0188 34.9026 26.9828 43.6337L26.1805 50.3954C26.0848 51.2015 24.9152 51.2015 24.8195 50.3954L24.0172 43.6337C22.9812 34.9026 16.0974 28.0188 7.36619 26.9828L0.604507 26.1805C-0.201502 26.0848 -0.201502 24.9152 0.604507 24.8195L7.36619 24.0172C16.0974 22.9812 22.9812 16.0974 24.0172 7.36619L24.8195 0.604507Z" fill="#F23F5C"/>
</svg>
