<svg width="1440" height="591" viewBox="0 0 1440 591" fill="none" xmlns="http://www.w3.org/2000/svg">
<path d="M-178 1077.13C-69.1298 846.088 212.5 750.714 450.582 705.118C599.419 676.534 751.121 665.798 902.393 657.153C1050.37 648.647 1198.35 655.758 1345.9 632.612C1431.56 619.087 1516.65 598.45 1597.44 567.356C1609.48 562.755 1621.37 558.014 1633.26 553.134C1809.88 480.069 1976.05 378.839 2136.06 276.354" stroke="url(#paint0_linear_237_117)" stroke-width="1.2" stroke-miterlimit="10" stroke-linecap="round"/>
<path d="M-172.556 1009.79C-60.3915 803.56 220.379 720.874 458.317 675.14C605.722 646.834 756.564 634.006 906.404 626.895C1052.52 619.923 1197.2 628.707 1342.17 613.23C1430.56 603.748 1518.37 585.482 1604.89 561.221C1691.42 536.959 1637.98 552.715 1654.17 546.44C1826.36 479.093 1985.94 378.839 2141.08 280.955" stroke="url(#paint1_linear_237_117)" stroke-width="1.2" stroke-miterlimit="10" stroke-linecap="round"/>
<path d="M-167.113 942.577C-51.6535 761.032 228.401 691.314 466.196 645.44C612.168 617.274 762.151 602.494 910.701 597.056C1054.95 591.618 1196.49 602.354 1338.73 594.267C1429.98 589.108 1521.23 575.025 1612.63 555.365C1633.4 550.903 1655.03 547.835 1675.37 540.166C1842.26 477.281 1995.96 379.257 2146.38 285.835" stroke="url(#paint2_linear_237_117)" stroke-width="1.2" stroke-miterlimit="10" stroke-linecap="round"/>
<path d="M-161.67 875.23C-42.9152 718.504 236.423 661.475 473.932 615.6C618.471 587.713 767.451 570.842 914.712 567.077C1057.1 563.173 1196.2 563.591 1335.01 575.164C1473.82 586.737 1524.24 565.264 1620.22 549.508C1645.43 545.325 1671.79 542.815 1696.43 533.891C1857.87 474.631 2005.85 379.815 2151.39 290.715" stroke="url(#paint3_linear_237_117)" stroke-width="1.2" stroke-miterlimit="10" stroke-linecap="round"/>
<path d="M-156.226 808.022C-34.1769 675.976 244.301 631.775 481.81 585.762C624.917 558.153 773.038 539.19 918.867 537.099C1059.4 534.728 1196.77 535.704 1331.43 556.201C1427.83 570.842 1527.54 556.201 1627.81 543.791C1728.09 531.382 1688.55 538.075 1717.49 527.617C1873.34 471.703 2015.73 380.233 2156.55 295.735" stroke="url(#paint4_linear_237_117)" stroke-width="1.2" stroke-miterlimit="10" stroke-linecap="round"/>
<path d="M-150.782 740.675C-25.4385 633.309 252.324 601.936 489.546 555.922C631.22 528.453 778.482 507.399 922.878 506.98C1061.54 506.144 1194.77 525.804 1327.56 536.959C1428.41 545.465 1530.55 547.417 1635.26 537.656C1669.64 534.449 1705.17 532.776 1738.4 521.063C1888.38 468.217 2025.62 380.512 2161.56 300.337" stroke="url(#paint5_linear_237_117)" stroke-width="1.1" stroke-miterlimit="10" stroke-linecap="round"/>
<path d="M-145.339 673.327C-16.7002 590.781 260.346 572.097 497.282 526.083C637.523 498.893 783.925 475.747 926.889 477.002C1063.69 477.699 1194.19 501.124 1323.84 517.856C1427.98 531.382 1533.84 538.911 1642.71 531.8C1681.67 529.29 1721.78 527.756 1759.17 514.789C1903.43 464.731 2035.22 380.931 2166.29 305.356" stroke="url(#paint6_linear_237_117)" stroke-width="1.1" stroke-miterlimit="10" stroke-linecap="round"/>
<path d="M-139.895 606.119C-7.96205 548.253 268.368 542.397 505.16 496.244C643.97 469.193 789.369 444.095 931.186 447.023C1066.13 449.393 1194.05 476.862 1320.4 498.893C1427.83 517.577 1537.42 517.577 1650.45 526.083C1763.47 534.589 1738.69 522.876 1780.37 508.653C1918.75 461.385 2045.24 381.628 2171.59 310.376" stroke="url(#paint7_linear_237_117)" stroke-width="1.1" stroke-miterlimit="10" stroke-linecap="round"/>
<path d="M-134.595 538.772C0.632979 505.725 276.103 512.558 512.752 466.405C650.129 439.633 794.669 412.443 935.054 417.044C1067.99 420.949 1193.33 452.879 1316.53 479.79C1427.26 504.052 1540.57 510.327 1657.89 520.087C1775.22 529.848 1755.3 517.578 1801.29 502.1C1933.79 457.62 2055.13 381.767 2176.46 315.117" stroke="url(#paint8_linear_237_117)" stroke-width="1.1" stroke-miterlimit="10" stroke-linecap="round"/>
<path d="M-129.152 471.563C9.37127 463.197 284.125 482.858 520.631 436.704C656.576 410.212 800.256 380.93 939.208 387.065C1070.28 392.503 1192.9 429.175 1312.95 460.687C1426.98 490.666 1543.87 503.494 1665.49 514.231C1717.92 518.832 1772.06 512.418 1822.35 495.825C1948.98 453.995 2065.01 382.325 2181.62 319.997" stroke="url(#paint9_linear_237_117)" stroke-width="1.1" stroke-miterlimit="10" stroke-linecap="round"/>
<path d="M-123.708 404.216C18.1095 420.67 292.147 453.019 528.367 406.726C662.735 380.373 805.699 349.139 943.219 356.948C1072.43 363.919 1192.19 405.471 1309.22 441.585C1426.26 477.559 1547.02 496.802 1673.08 508.375C1729.95 513.534 1788.68 507.259 1843.4 489.551C1964.16 450.23 2074.9 382.743 2186.77 325.017" stroke="url(#paint10_linear_237_117)" stroke-width="1.1" stroke-miterlimit="10" stroke-linecap="round"/>
<path d="M-118.265 337.008C26.8478 378.142 300.026 423.319 536.102 377.026C669.038 350.952 810.999 317.627 947.23 327.108C1074.58 335.614 1191.33 382.325 1305.36 422.622C1425.4 465.01 1549.88 490.527 1680.39 502.518C1741.7 508.235 1805.16 502.1 1864.17 483.137C1979.06 446.465 2084.49 383.161 2191.5 329.758" stroke="url(#paint11_linear_237_117)" stroke-width="1.1" stroke-miterlimit="10" stroke-linecap="round"/>
<path d="M-112.821 269.661C35.5861 335.614 308.048 393.48 543.981 347.187C675.485 321.392 816.586 285.835 951.528 297.13C1077.02 307.169 1190.61 359.179 1301.92 403.519C1424.83 452.461 1552.61 490.666 1688.12 496.662C1754.3 499.59 1821.92 496.662 1885.38 476.862C1994.25 442.701 2094.66 383.58 2196.8 334.777" stroke="url(#paint12_linear_237_117)" stroke-width="1.1" stroke-miterlimit="10" stroke-linecap="round"/>
<path d="M-107.378 202.314C44.3244 292.947 316.07 363.78 551.717 317.209C681.788 291.553 822.03 254.044 955.539 266.872C1079.16 278.446 1189.32 335.893 1298.19 384.277C1423.68 439.912 1555.47 482.579 1695.71 490.667C1766.33 494.71 1838.68 491.224 1906.43 470.449C2009.43 438.797 2104.55 383.998 2201.96 339.518" stroke="url(#paint13_linear_237_117)" stroke-width="1.1" stroke-miterlimit="10" stroke-linecap="round"/>
<path d="M-101.934 135.106C53.0626 250.558 323.949 334.08 559.595 287.509C688.234 262.132 827.473 222.532 959.693 237.033C1081.46 250.14 1188.18 313.165 1294.61 365.314C1422.39 428.06 1558.62 474.91 1703.3 484.81C1778.37 489.969 1855.29 485.786 1927.49 464.034C2024.62 434.892 2114.43 384.277 2206.97 344.259" stroke="url(#paint14_linear_237_117)" stroke-width="1.1" stroke-miterlimit="10" stroke-linecap="round"/>
<path d="M-96.4907 67.7578C61.8008 207.891 331.971 304.241 567.331 257.669C694.537 232.571 832.917 190.88 963.704 207.054C1083.6 221.695 1186.74 290.158 1290.89 346.211C1420.82 416.068 1561.49 466.962 1710.9 478.954C1790.54 485.368 1871.91 480.209 1948.55 457.759C2039.66 430.988 2124.32 384.695 2212.13 349.278" stroke="url(#paint15_linear_237_117)" stroke-width="1.1" stroke-miterlimit="10" stroke-linecap="round"/>
<path d="M-91.0471 0.550049C70.5391 165.363 339.993 274.541 575.209 227.83C700.983 202.871 838.503 159.228 967.858 177.076C1085.9 193.25 1185.17 267.29 1287.16 327.248C1418.95 404.495 1564.35 459.293 1718.35 473.237C1802.43 480.766 1888.24 474.631 1969.46 451.624C2054.7 427.363 2134.2 385.392 2217 354.298" stroke="url(#paint16_linear_237_117)" stroke-width="1.1" stroke-miterlimit="10" stroke-linecap="round"/>
<defs>
<linearGradient id="paint0_linear_237_117" x1="-206.261" y1="982.339" x2="2143.04" y2="299.368" gradientUnits="userSpaceOnUse">
<stop stop-color="#F23F5C"/>
<stop offset="1" stop-color="#F23F5C" stop-opacity="0.33"/>
</linearGradient>
<linearGradient id="paint1_linear_237_117" x1="-194.908" y1="927.806" x2="2165.28" y2="314.248" gradientUnits="userSpaceOnUse">
<stop stop-color="#F23F5C"/>
<stop offset="1" stop-color="#F23F5C"/>
</linearGradient>
<linearGradient id="paint2_linear_237_117" x1="-183.828" y1="873.033" x2="2184.99" y2="329.055" gradientUnits="userSpaceOnUse">
<stop stop-color="#F23F5C"/>
<stop offset="1" stop-color="#F23F5C"/>
</linearGradient>
<linearGradient id="paint3_linear_237_117" x1="-174.031" y1="817.876" x2="2202.31" y2="347.747" gradientUnits="userSpaceOnUse">
<stop stop-color="#F23F5C"/>
<stop offset="1" stop-color="#F23F5C" stop-opacity="0.33"/>
</linearGradient>
<linearGradient id="paint4_linear_237_117" x1="-164.557" y1="759.074" x2="2216.29" y2="358.528" gradientUnits="userSpaceOnUse">
<stop stop-color="#F23F5C"/>
<stop offset="1" stop-color="#F23F5C" stop-opacity="0.33"/>
</linearGradient>
<linearGradient id="paint5_linear_237_117" x1="-156.405" y1="699.981" x2="2227.6" y2="373.185" gradientUnits="userSpaceOnUse">
<stop stop-color="#F23F5C"/>
<stop offset="1" stop-color="#F23F5C" stop-opacity="0.33"/>
</linearGradient>
<linearGradient id="paint6_linear_237_117" x1="-148.752" y1="640.22" x2="2236.15" y2="387.021" gradientUnits="userSpaceOnUse">
<stop stop-color="#F23F5C"/>
<stop offset="1" stop-color="#F23F5C" stop-opacity="0.33"/>
</linearGradient>
<linearGradient id="paint7_linear_237_117" x1="-140.407" y1="581.328" x2="2242.97" y2="397.219" gradientUnits="userSpaceOnUse">
<stop stop-color="#F23F5C"/>
<stop offset="1" stop-color="#F23F5C" stop-opacity="0.33"/>
</linearGradient>
<linearGradient id="paint8_linear_237_117" x1="-133.788" y1="521.038" x2="2246.45" y2="409.994" gradientUnits="userSpaceOnUse">
<stop stop-color="#F23F5C"/>
<stop offset="1" stop-color="#F23F5C" stop-opacity="0.33"/>
</linearGradient>
<linearGradient id="paint9_linear_237_117" x1="-127.518" y1="460.445" x2="2247.53" y2="422.114" gradientUnits="userSpaceOnUse">
<stop stop-color="#F23F5C"/>
<stop offset="1" stop-color="#F23F5C" stop-opacity="0.33"/>
</linearGradient>
<linearGradient id="paint10_linear_237_117" x1="-121.868" y1="399.723" x2="2246.37" y2="433.697" gradientUnits="userSpaceOnUse">
<stop stop-color="#F23F5C"/>
<stop offset="1" stop-color="#F23F5C" stop-opacity="0.33"/>
</linearGradient>
<linearGradient id="paint11_linear_237_117" x1="-116.978" y1="339.019" x2="2242.58" y2="444.858" gradientUnits="userSpaceOnUse">
<stop stop-color="#F23F5C"/>
<stop offset="1" stop-color="#F23F5C" stop-opacity="0.33"/>
</linearGradient>
<linearGradient id="paint12_linear_237_117" x1="-111.927" y1="277.993" x2="2237.27" y2="450.993" gradientUnits="userSpaceOnUse">
<stop stop-color="#F23F5C"/>
<stop offset="1" stop-color="#F23F5C" stop-opacity="0.33"/>
</linearGradient>
<linearGradient id="paint13_linear_237_117" x1="-108.118" y1="217.69" x2="2228.83" y2="461.563" gradientUnits="userSpaceOnUse">
<stop stop-color="#F23F5C"/>
<stop offset="1" stop-color="#F23F5C" stop-opacity="0.33"/>
</linearGradient>
<linearGradient id="paint14_linear_237_117" x1="-104.293" y1="157.004" x2="2219.19" y2="467.026" gradientUnits="userSpaceOnUse">
<stop stop-color="#F23F5C"/>
<stop offset="1" stop-color="#F23F5C" stop-opacity="0.33"/>
</linearGradient>
<linearGradient id="paint15_linear_237_117" x1="-101.538" y1="96.794" x2="2206.37" y2="476.573" gradientUnits="userSpaceOnUse">
<stop stop-color="#F23F5C"/>
<stop offset="1" stop-color="#F23F5C" stop-opacity="0.33"/>
</linearGradient>
<linearGradient id="paint16_linear_237_117" x1="-98.9921" y1="38.2282" x2="2192.41" y2="483.038" gradientUnits="userSpaceOnUse">
<stop stop-color="#F23F5C"/>
<stop offset="1" stop-color="#F23F5C" stop-opacity="0.33"/>
</linearGradient>
</defs>
</svg>
