<svg width="241" height="6" viewBox="0 0 241 6" fill="none" xmlns="http://www.w3.org/2000/svg">
<path d="M1.64155 4.70579C41.452 4.70579 81.2624 4.75495 121.214 4.90239C140.696 4.95154 160.178 5.14813 179.659 5.14813C189.118 5.14813 198.717 5.14813 208.176 5.39386C212.693 5.49215 217.07 5.68874 221.446 5.88533C226.952 6.13106 230.763 5.93446 236.269 5.73788C240.928 5.59044 242.904 3.57543 238.669 2.64164C234.575 1.70785 231.893 0.921502 226.952 0.626622C222.434 0.331742 217.917 0.233448 213.258 0.135155C203.8 -0.0614319 194.2 -0.0122882 184.741 0.0860053C164.413 0.282592 144.225 0.675766 123.896 1.06894C83.0977 1.80614 42.299 2.64164 1.64155 3.57543C-0.476028 3.57543 -0.6172 4.70579 1.64155 4.70579Z" fill="#F23F5C"/>
</svg>
